# AST/ASF file generated using VICON BodyLanguage
# -----------------------------------------------
:version 1.10
:name VICON
:units
  mass 1.0
  length 0.45
  angle deg
:documentation
   .ast/.asf automatically generated from VICON data using
   VICON BodyBuilder and BodyLanguage model FoxedUp or BRILLIANT.MOD
:root
   order TX TY TZ RX RY RZ
   axis XYZ
   position 0 0 0  
   orientation 0 -0 0 
:bonedata
  begin
     id 1 
     name lhipjoint
     direction 0.432694 -0.693742 0.575759 
     length 2.19277 
     axis 0 -0 0  XYZ
  end
  begin
     id 2 
     name lfemur
     direction 0.34202 -0.939693 0  
     length 6.69022  
     axis 0 -0 20  XYZ
    dof rx ry rz
    limits (-160.0 20.0)
           (-70.0 70.0)
           (-60.0 70.0)
  end
  begin
     id 3 
     name ltibia
     direction 0.34202 -0.939693 0   
     length 6.50337   
     axis 0 -0 20   XYZ
    dof rx
    limits (-10.0 170.0)
  end
  begin
     id 4 
     name lfoot
     direction 0.158999 -0.435969 0.885805   
     length 2.70564   
     axis -90 -1.13533e-015 20   XYZ
    dof rx rz
    limits (-45.0 90.0)
           (-70.0 20.0)
  end
  begin
     id 5 
     name ltoes
     direction -0.00592919 0.00964381 0.999936   
     length 1.29929   
     axis -90 -1.13533e-015 20   XYZ
    dof rx
    limits (-90.0 20.0)
  end
  begin
     id 6 
     name rhipjoint
     direction -0.414359 -0.700339 0.581234   
     length 2.17212  
     axis 0 -0 0  XYZ 
  end
  begin
     id 7 
     name rfemur
     direction -0.34202 -0.939693 0   
     length 7.17659   
     axis 0 -0 -20   XYZ
    dof rx ry rz
    limits (-160.0 20.0)
           (-70.0 70.0)
           (-70.0 60.0)
  end
  begin
     id 8 
     name rtibia
     direction -0.34202 -0.939693 0   
     length 6.36669   
     axis 0 -0 -20   XYZ
    dof rx
    limits (-10.0 170.0)
 end
 begin
     id 9 
     name rfoot
     direction -0.137064 -0.37658 0.916188   
     length 2.22351  
     axis -90 1.13533e-015 -20   XYZ
    dof rx rz
    limits (-45.0 90.0)
           (-20.0 70.0)
  end
  begin
     id 10 
     name rtoes
     direction -0.000784077 -0.00289101 0.999996   
     length 1.09522   
     axis -90 1.13533e-015 -20   XYZ
    dof rx
    limits (-90.0 20.0)
  end
  begin
     id 11 
     name lowerback
     direction -0.0176242 0.984912 -0.172157   
     length 1.65301   
     axis 0 -0 0   XYZ
    dof rx ry rz
    limits (-20.0 45.0)
           (-30.0 30.0)
           (-30.0 30.0)
  end
  begin
     id 12 
     name upperback
     direction -0.00218128 0.998776 -0.0494072   
     length 1.67776   
     axis 0 -0 0   XYZ
    dof rx ry rz
    limits (-20.0 45.0)
           (-30.0 30.0)
           (-30.0 30.0)
  end
  begin
     id 13 
     name thorax
     direction 0.00544186 0.999658 0.0255711   
     length 1.72293   
     axis 0 -0 0   XYZ
    dof rx ry rz
    limits (-20.0 45.0)
           (-30.0 30.0)
           (-30.0 30.0)
  end
  begin
     id 14 
     name lowerneck
     direction -0.105325 0.983841 0.144785   
     length 2.14226   
     axis 0 -0 0   XYZ
    dof rx ry rz
    limits (-20.0 45.0)
           (-30.0 30.0)
           (-30.0 30.0)
  end
  begin
     id 15 
     name upperneck
     direction 0.0547957 0.988053 -0.144041   
     length 2.17508   
     axis 0 -0 0   XYZ
    dof rx ry rz
    limits (-20.0 45.0)
           (-30.0 30.0)
           (-30.0 30.0)
  end
  begin
     id 16
     name head
     direction 0.0247488 0.997534 -0.0656813  
     length 2.20048  
     axis 0 -0 0   XYZ
    dof rx ry rz
    limits (-20.0 45.0)
           (-30.0 30.0)
           (-30.0 30.0)
  end
  begin
     id 17 
     name lclavicle
     direction 0.820559 0.567247 -0.0701026  
     length 4.09615  
     axis 0 -0 0   XYZ
    dof ry rz
    limits (-20.0 10.0)
           (0.0 20.0)
  end
  begin
     id 18 
     name lhumerus
     direction 0.999977 -0.0067566 -9.96392e-005   
     length 4.59333   
     axis -180 -30 -90   XYZ
    dof rx ry rz
    limits (-60.0 90.0)
           (-90.0 90.0)
           (-90.0 90.0)
  end
  begin
     id 19
     name lradius
     direction 1 -4.48982e-011 -2.53425e-027   
     length 2.81151   
     axis -180 -30 -90   XYZ
    dof rx
    limits (-10.0 170.0)
  end
  begin
     id 20
     name lwrist
     direction 1 -4.48939e-011 -7.39254e-028   
     length 1.40576   
     axis 2.56395e-016 90 90   XYZ
    dof ry
    limits (-180.0 0.0)
 end
  begin
     id 21 
     name lhand
     direction 1 -4.48939e-011 -1.47851e-027   
     length 0.895651   
     axis 9.43423e-016 90 90   XYZ
    dof rx rz
    limits (-90.0 90.0)
           (-45.0 45.0)
  end
  begin
     id 22 
     name lfingers
     direction 1 -4.48978e-011 -2.95702e-027   
     length 0.722097   
     axis 1.88685e-015 90 90   XYZ
    dof rx
    limits (0.0 90.0)
  end
  begin
     id 23
     name lthumb
     direction 0.707107 -6.34931e-011 0.707107   
     length 1.03679   
     axis -90 45 -9.86935e-015   XYZ
    dof rx rz
    limits (-45.0 45.0)
           (-45.0 45.0)
  end
  begin
     id 24 
     name rclavicle
     direction -0.831414 0.553102 -0.0531864   
     length 4.24872  
     axis 0 -0 0   XYZ 
    dof ry rz
    limits (-10.0 20.0)
           (-20.0 0.0)
  end
  begin
     id 25 
     name rhumerus
     direction -0.999916 -0.000939607 0.0129331  
     length 4.74834   
     axis -180 30 90   XYZ
    dof rx ry rz
    limits (-90.0 60.0)
           (-90.0 90.0)
           (-90.0 90.0)
  end
  begin
     id 26 
     name rradius
     direction -1 -4.48956e-011 -1.31752e-027   
     length 2.79907   
     axis -180 30 90   XYZ
    dof rx
    limits (-10.0 170.0)
  end
  begin
     id 27 
     name rwrist
     direction -1 -4.4897e-011 -7.39254e-028   
     length 1.39954   
     axis 2.56395e-016 -90 -90   XYZ
    dof ry
    limits (-180.0 0.0)
  end
  begin
     id 28
     name rhand
     direction -0.999997 -0.00250697 0.000800838   
     length 0.953304   
     axis 9.43423e-016 -90 -90   XYZ
    dof rx rz
    limits (-90.0 90.0)
           (-45.0 45.0)
  end
  begin
     id 29
     name rfingers
     direction -1 -4.48954e-011 -2.95702e-027   
     length 0.763342   
     axis 1.88685e-015 -90 -90   XYZ
    dof rx
    limits (0.0 90.0)
  end
  begin
     id 30
     name rthumb
     direction -0.709701 -0.00217037 0.7045   
     length 1.10115   
     axis -90 -45 9.86935e-015   XYZ
    dof rx rz
    limits (-45.0 45.0)
           (-45.0 45.0)
  end
:hierarchy
  begin
    root lhipjoint rhipjoint lowerback
    lhipjoint lfemur
    lfemur ltibia
    ltibia lfoot
    lfoot ltoes
    rhipjoint rfemur
    rfemur rtibia
    rtibia rfoot
    rfoot rtoes
    lowerback upperback
    upperback thorax
    thorax lowerneck lclavicle rclavicle
    lowerneck upperneck
    upperneck head
    lclavicle lhumerus
    lhumerus lradius
    lradius lwrist
    lwrist lhand lthumb
    lhand lfingers
    rclavicle rhumerus
    rhumerus rradius
    rradius rwrist
    rwrist rhand rthumb
    rhand rfingers
  end

#!OML:ASF G:\ViconDB\ViconDB\414\test\team2\shane.ASF
:FULLY-SPECIFIED
:DEGREES
1
root 5.91179 15.9513 -43.0923 -0.658017 -6.33734 -7.28733
lowerback 10.7594 0.69268 7.3321
upperback 3.30009 1.78209 3.15736
thorax -2.45267 0.872066 -1.05381
lowerneck -18.5184 -3.70126 -6.94355
upperneck 19.4927 -4.67638 6.62406
head 9.54166 -1.95428 2.81299
rclavicle -6.4605e-015 -2.3059e-014
rhumerus -34.7569 -0.744732 -91.1545
rradius 27.5231
rwrist 41.1121
rhand -36.2174 -16.2816
rfingers 7.12502
rthumb -9.31955 -46.0556
lclavicle -6.4605e-015 -2.3059e-014
lhumerus -31.5321 -25.8796 100.786
lradius 43.2023
lwrist -16.4829
lhand -42.8056 6.54656
lfingers 7.12502
lthumb -15.6711 35.9319
rfemur 6.7569 -20.3087 20.2391
rtibia 31.9953
rfoot -39.4389 2.01383
rtoes -7.48757
lfemur -13.1659 16.6414 -0.136097
ltibia 61.8133
lfoot -32.8697 -6.10425
ltoes -6.22517
2
root 5.89015 15.9659 -43.0022 -0.566803 -6.84068 -7.00261
lowerback 11.124 0.817251 7.18425
upperback 3.46172 1.9596 3.31728
thorax -2.48237 0.960742 -0.832833
lowerneck -18.7319 -3.6831 -7.83035
upperneck 19.4208 -4.43148 6.87371
head 9.56455 -1.87529 3.08103
rclavicle -1.89839e-014 -3.93594e-014
rhumerus -32.6489 -0.220484 -91.9954
rradius 27.8289
rwrist 41.4336
rhand -36.674 -16.8729
rfingers 7.12502
rthumb -9.76011 -46.6267
lclavicle -1.89839e-014 -3.93594e-014
lhumerus -31.5993 -25.1309 100.715
lradius 41.666
lwrist -15.8149
lhand -42.7368 6.64664
lfingers 7.12502
lthumb -15.6048 36.0372
rfemur 7.39383 -20.1017 19.8022
rtibia 31.0374
rfoot -39.1646 2.49546
rtoes -7.47954
lfemur -14.58 17.3603 -0.916343
ltibia 62.6546
lfoot -32.7718 -6.73479
ltoes -5.75396
3
root 5.8589 15.9687 -42.8966 -0.242025 -6.50269 -6.88485
lowerback 10.9091 0.916192 7.40082
upperback 3.26738 2.10196 3.16222
thorax -2.54409 1.02677 -1.1297
lowerneck -18.4255 -3.81489 -7.4248
upperneck 19.811 -4.67361 6.44549
head 9.644 -2.0104 2.83501
rclavicle -6.75868e-015 1.43125e-014
rhumerus -32.1251 1.10615 -93.6376
rradius 29.6408
rwrist 39.0855
rhand -36.7236 -16.985
rfingers 7.12502
rthumb -9.80794 -46.7366
lclavicle -6.75868e-015 1.43125e-014
lhumerus -32.6314 -25.3705 100.342
lradius 40.219
lwrist -15.7593
lhand -42.0446 6.11435
lfingers 7.12502
lthumb -14.9381 35.5557
rfemur 7.93661 -20.3034 19.7776
rtibia 30.0264
rfoot -38.9273 2.14909
rtoes -8.03396
lfemur -16.4967 17.5892 -1.66473
ltibia 63.1691
lfoot -32.8775 -7.25158
ltoes -6.19786
4
root 5.832 15.9747 -42.7954 -0.150917 -6.54135 -6.64674
lowerback 11.1319 1.06563 7.51465
upperback 3.20481 2.33358 3.00294
thorax -2.70356 1.13527 -1.39439
lowerneck -18.242 -3.81733 -7.31063
upperneck 19.9612 -4.6988 6.31531
head 9.65868 -2.03101 2.76981
rclavicle 1.19271e-015 2.26615e-014
rhumerus -30.5679 0.815739 -94.8133
rradius 30.2981
rwrist 38.9726
rhand -36.8944 -17.2594
rfingers 7.12502
rthumb -9.97275 -47.0032
lclavicle 1.19271e-015 2.26615e-014
lhumerus -33.4268 -25.4678 99.9932
lradius 38.6322
lwrist -15.4809
lhand -41.6241 6.53319
lfingers 7.12502
lthumb -14.533 36.0041
rfemur 8.70693 -20.1974 19.5005
rtibia 28.9605
rfoot -38.5915 2.12986
rtoes -7.82446
lfemur -17.8013 17.3442 -2.29242
ltibia 63.5979
lfoot -32.9824 -8.54561
ltoes -4.83689
5
root 5.814 15.9848 -42.6802 -0.120288 -6.90779 -6.32128
lowerback 11.2719 1.37106 7.67128
upperback 3.34077 2.74834 2.72285
thorax -2.58279 1.34774 -1.82622
lowerneck -18.2966 -4.03106 -6.91935
upperneck 19.996 -5.0421 6.04462
head 9.68902 -2.1889 2.56022
rclavicle -5.76476e-015 1.70955e-014
rhumerus -29.2797 1.57701 -96.1643
rradius 31.8894
rwrist 37.7654
rhand -36.8573 -17.3509
rfingers 7.12502
rthumb -9.93696 -47.0963
lclavicle -5.76476e-015 1.70955e-014
lhumerus -34.052 -25.9252 99.4823
lradius 37.071
lwrist -14.8237
lhand -40.7667 6.03456
lfingers 7.12502
lthumb -13.7067 35.5632
rfemur 9.60008 -19.9117 18.9837
rtibia 27.8051
rfoot -38.3124 2.14757
rtoes -8.30242
lfemur -19.2596 17.9541 -3.38492
ltibia 63.6771
lfoot -33.2132 -8.21278
ltoes -5.76237
6
root 5.79222 15.9997 -42.5771 0.146909 -7.48622 -5.9697
lowerback 11.7431 1.5952 7.51942
upperback 3.19799 3.08515 2.76429
thorax -2.9739 1.49719 -1.76275
lowerneck -17.9685 -4.07168 -7.75379
upperneck 19.9365 -4.93937 6.29777
head 9.63043 -2.1829 2.8051
rclavicle -5.96354e-016 1.27222e-014
rhumerus -28.6767 3.89427 -97.2295
rradius 33.7963
rwrist 35.511
rhand -37.7776 -17.6712
rfingers 7.12502
rthumb -10.8248 -47.3723
lclavicle -5.96354e-016 1.27222e-014
lhumerus -34.7133 -25.0449 99.0997
lradius 35.2346
lwrist -15.4376
lhand -41.1018 6.08119
lfingers 7.12502
lthumb -14.0297 35.5877
rfemur 10.1897 -19.5439 18.5495
rtibia 26.5214
rfoot -37.8183 2.31701
rtoes -8.41643
lfemur -20.8207 18.3128 -4.46779
ltibia 63.5794
lfoot -33.3006 -8.55743
ltoes -5.7874
7
root 5.7619 16.0078 -42.4597 0.337417 -7.26562 -5.60938
lowerback 11.8026 1.76482 7.33973
upperback 3.17229 3.29311 2.68415
thorax -3.0223 1.59883 -1.77708
lowerneck -17.8402 -4.20573 -7.64835
upperneck 19.9723 -5.09135 5.98331
head 9.61992 -2.2823 2.65687
rclavicle 1.20265e-014 6.36111e-015
rhumerus -27.4894 4.42432 -97.9407
rradius 35.2221
rwrist 35.4061
rhand -38.4332 -17.2504
rfingers 7.12502
rthumb -11.457 -46.9173
lclavicle 1.20265e-014 6.36111e-015
lhumerus -35.6682 -25.7195 98.989
lradius 33.9266
lwrist -13.8628
lhand -40.4046 6.50385
lfingers 7.12502
lthumb -13.3577 36.0557
rfemur 11.0542 -19.5039 18.2412
rtibia 25.0848
rfoot -37.2897 2.07989
rtoes -8.20681
lfemur -22.5108 18.0224 -5.54057
ltibia 63.2728
lfoot -33.4459 -8.601
ltoes -6.02224
8
root 5.74078 16.0193 -42.34 0.500428 -7.45892 -5.35079
lowerback 11.9915 1.99422 7.66145
upperback 3.18718 3.63589 2.29953
thorax -3.03455 1.76735 -2.40884
lowerneck -17.6891 -4.32307 -7.16478
upperneck 19.8801 -5.36254 5.83695
head 9.56151 -2.38968 2.48809
rclavicle 1.49089e-015 -2.26615e-014
rhumerus -26.4147 5.01124 -99.1714
rradius 37.1488
rwrist 34.7899
rhand -39.0913 -18.3729
rfingers 7.12502
rthumb -12.0917 -48.0035
lclavicle 1.49089e-015 -2.26615e-014
lhumerus -36.3067 -26.0154 97.9674
lradius 32.1691
lwrist -14.6589
lhand -39.6889 6.73352
lfingers 7.12502
lthumb -12.6679 36.3293
rfemur 11.9295 -19.2482 17.9203
rtibia 23.62
rfoot -36.7539 1.93979
rtoes -8.87848
lfemur -23.9726 17.8961 -6.48875
ltibia 62.8015
lfoot -33.6322 -8.76095
ltoes -5.72764
9
root 5.71901 16.0294 -42.2146 0.786891 -7.38328 -5.12917
lowerback 12.0438 2.12694 7.50988
upperback 3.15575 3.80696 2.47574
thorax -3.10318 1.84881 -2.16722
lowerneck -17.7642 -4.44436 -7.61275
upperneck 20.1113 -5.34463 5.56852
head 9.66152 -2.44393 2.47103
rclavicle 3.81667e-014 3.18055e-015
rhumerus -25.669 6.47871 -99.5654
rradius 39.458
rwrist 34.3799
rhand -39.1975 -19.2475
rfingers 7.12502
rthumb -12.1941 -48.872
lclavicle 3.81667e-014 3.18055e-015
lhumerus -37.3224 -25.8505 98.0402
lradius 30.8771
lwrist -13.3333
lhand -38.9067 6.44842
lfingers 7.12502
lthumb -11.9137 36.0894
rfemur 12.8124 -19.0352 17.7837
rtibia 21.9466
rfoot -36.0814 1.86339
rtoes -8.72538
lfemur -25.6632 17.5928 -7.39869
ltibia 62.2014
lfoot -33.6489 -9.08473
ltoes -5.7479
10
root 5.70012 16.0295 -42.0879 1.04628 -7.54771 -4.80562
lowerback 12.195 2.35834 7.57647
upperback 3.14415 4.12578 2.23868
thorax -3.14649 2.00432 -2.50121
lowerneck -17.7001 -4.59975 -7.49549
upperneck 20.0852 -5.58001 5.49701
head 9.6521 -2.55254 2.39366
rclavicle 5.01931e-014 2.38542e-015
rhumerus -24.6947 7.49595 -100.371
rradius 41.7507
rwrist 33.6805
rhand -39.5579 -19.235
rfingers 7.12502
rthumb -12.5416 -48.8386
lclavicle 5.01931e-014 2.38542e-015
lhumerus -38.0848 -26.0124 97.2224
lradius 29.3629
lwrist -13.6662
lhand -38.3854 6.52721
lfingers 7.12502
lthumb -11.411 36.1967
rfemur 13.7691 -18.8101 17.4007
rtibia 20.1506
rfoot -35.3406 1.80468
rtoes -9.03387
lfemur -27.1994 17.4669 -8.47788
ltibia 61.4868
lfoot -33.9093 -8.72799
ltoes -6.88232
11
root 5.68339 16.0385 -41.9527 1.28159 -7.61375 -4.50717
lowerback 12.2845 2.5676 7.57392
upperback 3.18147 4.40259 2.12696
thorax -3.12074 2.14292 -2.65613
lowerneck -17.679 -4.70477 -7.56308
upperneck 20.0598 -5.68289 5.3986
head 9.64611 -2.61627 2.35566
rclavicle -4.9398e-014 -1.74931e-014
rhumerus -23.7098 8.37028 -100.89
rradius 44.1053
rwrist 33.1236
rhand -39.7766 -19.0421
rfingers 7.12502
rthumb -12.7524 -48.6326
lclavicle -4.9398e-014 -1.74931e-014
lhumerus -38.729 -25.7101 96.4174
lradius 27.9399
lwrist -14.0401
lhand -37.6612 7.46145
lfingers 7.12502
lthumb -10.7125 37.1683
rfemur 14.8442 -18.5936 17.0532
rtibia 18.2275
rfoot -34.537 1.68043
rtoes -9.5151
lfemur -28.7098 17.1078 -9.44979
ltibia 60.7109
lfoot -34.1181 -8.63917
ltoes -6.90085
12
root 5.66601 16.0412 -41.8163 1.47234 -7.70315 -4.12042
lowerback 12.4023 2.78826 7.46972
upperback 3.25309 4.68084 1.98308
thorax -3.07857 2.28421 -2.78923
lowerneck -17.3779 -4.82366 -7.7492
upperneck 19.6407 -5.83134 5.53042
head 9.46519 -2.68934 2.41342
rclavicle 4.17448e-015 -1.03368e-014
rhumerus -22.7682 9.69258 -101.378
rradius 46.7441
rwrist 32.2624
rhand -40.0108 -18.7359
rfingers 7.12502
rthumb -12.9781 -48.3123
lclavicle 4.17448e-015 -1.03368e-014
lhumerus -39.5493 -25.722 95.6646
lradius 26.9198
lwrist -13.1898
lhand -36.9025 7.41181
lfingers 7.12502
lthumb -9.9806 37.1552
rfemur 16.0021 -18.4045 16.5636
rtibia 16.2287
rfoot -33.713 1.80594
rtoes -10.1146
lfemur -30.1171 16.8893 -10.4623
ltibia 59.8896
lfoot -34.3792 -8.65888
ltoes -6.87489
13
root 5.65033 16.0374 -41.6754 1.74536 -7.85902 -3.86206
lowerback 12.5168 2.9764 7.52511
upperback 3.24257 4.94193 1.87067
thorax -3.11104 2.41141 -2.97863
lowerneck -17.2779 -4.94166 -7.73142
upperneck 19.5631 -5.96208 5.35275
head 9.42326 -2.76959 2.33129
rclavicle 5.40694e-014 -1.19271e-014
rhumerus -21.7205 10.5176 -101.883
rradius 49.1482
rwrist 31.7892
rhand -41.5714 -20.4907
rfingers 7.12502
rthumb -14.4822 -49.9653
lclavicle 5.40694e-014 -1.19271e-014
lhumerus -40.7129 -25.984 95.1374
lradius 26.0531
lwrist -12.3488
lhand -36.4238 7.92033
lfingers 7.12502
lthumb -9.5187 37.6853
rfemur 17.2492 -18.4188 16.1191
rtibia 13.9193
rfoot -32.7637 2.09247
rtoes -10.4627
lfemur -31.6238 16.7378 -11.3579
ltibia 59.0162
lfoot -34.5389 -8.68223
ltoes -6.74872
14
root 5.63278 16.0313 -41.5304 2.07297 -8.39675 -3.63135
lowerback 12.6128 3.3772 7.46102
upperback 3.27307 5.46164 1.7136
thorax -3.06803 2.67093 -3.17897
lowerneck -17.1569 -5.00718 -7.5053
upperneck 19.2919 -6.05213 5.09787
head 9.29712 -2.82416 2.19427
rclavicle -7.03698e-014 9.54166e-015
rhumerus -20.7448 11.1649 -102.275
rradius 51.9299
rwrist 31.1931
rhand -42.2699 -20.4192
rfingers 7.12502
rthumb -15.1552 -49.8443
lclavicle -7.03698e-014 9.54166e-015
lhumerus -41.8041 -25.9749 94.3024
lradius 25.1372
lwrist -12.8912
lhand -36.1143 8.86416
lfingers 7.12502
lthumb -9.22012 38.6426
rfemur 18.4984 -17.544 15.9548
rtibia 11.2909
rfoot -31.5335 1.86361
rtoes -11.3139
lfemur -33.0254 16.9319 -12.1615
ltibia 58.1118
lfoot -34.56 -9.28071
ltoes -6.78544
